<svg width="24" height="25" viewBox="0 0 24 25" fill="none" xmlns="http://www.w3.org/2000/svg">
<path fill-rule="evenodd" clip-rule="evenodd" d="M12 4.16309C7.65076 4.16309 4.125 7.68884 4.125 12.0381C4.125 16.3873 7.65076 19.9131 12 19.9131C16.3492 19.9131 19.875 16.3873 19.875 12.0381C19.875 7.68884 16.3492 4.16309 12 4.16309ZM1.875 12.0381C1.875 6.4462 6.40812 1.91309 12 1.91309C17.5919 1.91309 22.125 6.4462 22.125 12.0381C22.125 17.63 17.5919 22.1631 12 22.1631C6.40812 22.1631 1.875 17.63 1.875 12.0381ZM11.2955 8.24259C11.7348 8.68193 11.7348 9.39424 11.2955 9.83358L9.09099 12.0381L11.2955 14.2426C11.7348 14.6819 11.7348 15.3942 11.2955 15.8336C10.8562 16.2729 10.1438 16.2729 9.7045 15.8336L6.7045 12.8336C6.26517 12.3942 6.26517 11.6819 6.7045 11.2426L9.7045 8.24259C10.1438 7.80325 10.8562 7.80325 11.2955 8.24259ZM16.5455 8.24259C16.9848 8.68193 16.9848 9.39424 16.5455 9.83358L14.341 12.0381L16.5455 14.2426C16.9848 14.6819 16.9848 15.3942 16.5455 15.8336C16.1062 16.2729 15.3938 16.2729 14.9545 15.8336L11.9545 12.8336C11.5152 12.3942 11.5152 11.6819 11.9545 11.2426L14.9545 8.24259C15.3938 7.80325 16.1062 7.80325 16.5455 8.24259Z" fill="black"/>
</svg>
