<svg width="24" height="25" viewBox="0 0 24 25" fill="none" xmlns="http://www.w3.org/2000/svg">
<path fill-rule="evenodd" clip-rule="evenodd" d="M12 4.16309C7.65076 4.16309 4.125 7.68884 4.125 12.0381C4.125 16.3873 7.65076 19.9131 12 19.9131C16.3492 19.9131 19.875 16.3873 19.875 12.0381C19.875 7.68884 16.3492 4.16309 12 4.16309ZM1.875 12.0381C1.875 6.4462 6.40812 1.91309 12 1.91309C17.5919 1.91309 22.125 6.4462 22.125 12.0381C22.125 17.63 17.5919 22.1631 12 22.1631C6.40812 22.1631 1.875 17.63 1.875 12.0381ZM10.0388 7.9105C10.4544 7.44868 11.1658 7.41124 11.6276 7.82688L15.3776 11.2019C15.6146 11.4152 15.75 11.7192 15.75 12.0381C15.75 12.357 15.6146 12.6609 15.3776 12.8743L11.6276 16.2493C11.1658 16.6649 10.4544 16.6275 10.0388 16.1657C9.62315 15.7038 9.66059 14.9925 10.1224 14.5769L12.9433 12.0381L10.1224 9.49929C9.66059 9.08365 9.62315 8.37232 10.0388 7.9105Z" fill="black"/>
</svg>
