<svg width="24" height="25" viewBox="0 0 24 25" fill="none" xmlns="http://www.w3.org/2000/svg">
<path fill-rule="evenodd" clip-rule="evenodd" d="M12 4.16309C7.65076 4.16309 4.125 7.68884 4.125 12.0381C4.125 16.3873 7.65076 19.9131 12 19.9131C16.3492 19.9131 19.875 16.3873 19.875 12.0381C19.875 7.68884 16.3492 4.16309 12 4.16309ZM1.875 12.0381C1.875 6.4462 6.40812 1.91309 12 1.91309C17.5919 1.91309 22.125 6.4462 22.125 12.0381C22.125 17.63 17.5919 22.1631 12 22.1631C6.40812 22.1631 1.875 17.63 1.875 12.0381ZM7.4545 8.24259C7.89384 7.80325 8.60616 7.80325 9.0455 8.24259L12.0455 11.2426C12.4848 11.6819 12.4848 12.3942 12.0455 12.8336L9.0455 15.8336C8.60616 16.2729 7.89384 16.2729 7.4545 15.8336C7.01516 15.3942 7.01516 14.6819 7.4545 14.2426L9.65901 12.0381L7.4545 9.83358C7.01516 9.39424 7.01516 8.68193 7.4545 8.24259ZM12.7045 8.24259C13.1438 7.80325 13.8562 7.80325 14.2955 8.24259L17.2955 11.2426C17.7348 11.6819 17.7348 12.3942 17.2955 12.8336L14.2955 15.8336C13.8562 16.2729 13.1438 16.2729 12.7045 15.8336C12.2652 15.3942 12.2652 14.6819 12.7045 14.2426L14.909 12.0381L12.7045 9.83358C12.2652 9.39424 12.2652 8.68193 12.7045 8.24259Z" fill="black"/>
</svg>
