<svg width="24" height="25" viewBox="0 0 24 25" fill="none" xmlns="http://www.w3.org/2000/svg">
<path fill-rule="evenodd" clip-rule="evenodd" d="M12 4.16309C7.65076 4.16309 4.125 7.68884 4.125 12.0381C4.125 16.3873 7.65076 19.9131 12 19.9131C16.3492 19.9131 19.875 16.3873 19.875 12.0381C19.875 7.68884 16.3492 4.16309 12 4.16309ZM1.875 12.0381C1.875 6.4462 6.40812 1.91309 12 1.91309C17.5919 1.91309 22.125 6.4462 22.125 12.0381C22.125 17.63 17.5919 22.1631 12 22.1631C6.40812 22.1631 1.875 17.63 1.875 12.0381ZM14.3362 7.9105C14.7518 8.37232 14.7144 9.08365 14.2526 9.49929L11.4317 12.0381L14.2526 14.5769C14.7144 14.9925 14.7518 15.7038 14.3362 16.1657C13.9206 16.6275 13.2092 16.6649 12.7474 16.2493L8.99741 12.8743C8.76036 12.6609 8.625 12.357 8.625 12.0381C8.625 11.7192 8.76036 11.4152 8.99741 11.2019L12.7474 7.82688C13.2092 7.41124 13.9206 7.44868 14.3362 7.9105Z" fill="black"/>
</svg>
