<svg width="22" height="18" viewBox="0 0 22 18" fill="none" xmlns="http://www.w3.org/2000/svg">
<path fill-rule="evenodd" clip-rule="evenodd" d="M2.375 9.75C2.375 9.33579 2.71079 9 3.125 9H8.375C8.78921 9 9.125 9.33579 9.125 9.75C9.125 10.1642 8.78921 10.5 8.375 10.5H3.875V16.5C3.875 16.9142 3.53921 17.25 3.125 17.25C2.71079 17.25 2.375 16.9142 2.375 16.5V9.75Z" fill="#424242"/>
<path fill-rule="evenodd" clip-rule="evenodd" d="M0.875 16.5C0.875 16.0858 1.21079 15.75 1.625 15.75H20.375C20.7892 15.75 21.125 16.0858 21.125 16.5C21.125 16.9142 20.7892 17.25 20.375 17.25H1.625C1.21079 17.25 0.875 16.9142 0.875 16.5Z" fill="#424242"/>
<path fill-rule="evenodd" clip-rule="evenodd" d="M7.625 5.25C7.625 4.83579 7.96079 4.5 8.375 4.5H13.625C14.0392 4.5 14.375 4.83579 14.375 5.25C14.375 5.66421 14.0392 6 13.625 6H9.125V16.5C9.125 16.9142 8.78921 17.25 8.375 17.25C7.96079 17.25 7.625 16.9142 7.625 16.5V5.25Z" fill="#424242"/>
<path fill-rule="evenodd" clip-rule="evenodd" d="M12.875 0.75C12.875 0.335786 13.2108 0 13.625 0H18.875C19.2892 0 19.625 0.335786 19.625 0.75V16.5C19.625 16.9142 19.2892 17.25 18.875 17.25H13.625C13.2108 17.25 12.875 16.9142 12.875 16.5V0.75ZM14.375 1.5V15.75H18.125V1.5H14.375Z" fill="#424242"/>
</svg>
