<?xml version="1.0" encoding="utf-8"?>
<!-- Generator: Adobe Illustrator 26.1.0, SVG Export Plug-In . SVG Version: 6.00 Build 0)  -->
<svg version="1.1" id="Layer_1" xmlns="http://www.w3.org/2000/svg" xmlns:xlink="http://www.w3.org/1999/xlink" x="0px" y="0px"
	 viewBox="0 0 432 432" style="enable-background:new 0 0 432 432;" xml:space="preserve">
<style type="text/css">
	.st0{fill:#EC4824;}
	.st1{fill:#FFFFFF;stroke:#FFFFFF;stroke-width:1.7651;stroke-miterlimit:10;}
	.st2{fill:#FFFFFF;}
</style>
<circle class="st0" cx="215.59" cy="215.73" r="213.24"/>
<path class="st1" d="M344.49,259.26h-37.36c-1.28,0-2.44,0.73-3.02,1.88c-16.03,31.54-48.33,53.65-85.54,53.91
	c-57,0-96.64-45.19-95.99-98.23c-0.65-53.04,38.99-98.23,95.99-98.23c37.27,0.26,69.61,22.43,85.61,54.03
	c0.58,1.14,1.74,1.88,3.02,1.88h37.34c2.37,0,4.02-2.38,3.19-4.6c-19.52-52.16-70.92-89.91-129.16-88.76
	c-75.15,0-137.1,56.54-137.52,135.63h0c0,0,0,0,0,0c0,0.02,0,0.04,0,0.06c0,0.02,0,0.04,0,0.06c0,0,0,0,0,0h0
	c0.42,79.08,62.37,135.63,137.52,135.63v-0.01c58.18,1.14,109.55-36.54,129.1-88.63C348.51,261.64,346.87,259.26,344.49,259.26z"/>
<rect x="193.65" y="189.81" class="st2" width="53.97" height="55.01"/>
</svg>
