<svg width="22" height="22" viewBox="0 0 22 22" fill="none" xmlns="http://www.w3.org/2000/svg">
<path d="M19.2551 13.0625H16.9599L14.9006 15.125H19.2551C19.6336 15.125 19.9415 15.4334 19.9415 15.8125V19.25C19.9415 19.6291 19.6336 19.9375 19.2551 19.9375H2.78086C2.40238 19.9375 2.09444 19.6291 2.09444 19.25V15.8125C2.09444 15.4344 2.40247 15.125 2.78086 15.125H7.13538L5.0761 13.0625H2.78086C1.26429 13.0625 0.0351562 14.2936 0.0351562 15.8125V19.25C0.0351562 20.7689 1.26429 22 2.78086 22H19.2551C20.7717 22 22.0008 20.7689 22.0008 19.25V15.8125C22.0008 14.2957 20.7695 13.0625 19.2551 13.0625ZM18.5687 17.5312C18.5687 16.9615 18.1075 16.5 17.539 16.5C16.9706 16.5 16.5094 16.9598 16.5094 17.5312C16.5094 18.1006 16.9706 18.5625 17.539 18.5625C18.1075 18.5625 18.5687 18.1027 18.5687 17.5312ZM10.2887 15.8168C10.4903 16.0574 10.752 16.1562 11.018 16.1562C11.284 16.1562 11.5448 16.0555 11.746 15.8541L17.5806 10.0104C17.9828 9.60755 17.9828 8.95507 17.5806 8.55203C17.1784 8.14898 16.527 8.1492 16.1246 8.55203L12.0476 12.6371V1.03125C12.0476 0.461914 11.5886 0 11.018 0C10.4474 0 9.98834 0.461914 9.98834 1.03125V12.6371L5.87407 8.55078C5.47187 8.14795 4.82041 8.14795 4.41799 8.55078C4.01557 8.95361 4.01579 9.60609 4.41799 10.0091L10.2887 15.8168Z" fill="#424242"/>
</svg>
