<svg width="32" height="32" viewBox="-4 0 32 20" xmlns="http://www.w3.org/2000/svg">
<path fill-rule="evenodd" clip-rule="evenodd" d="M6 2C6 1.44772 6.44772 1 7 1H23C23.5523 1 24 1.44772 24 2C24 2.55228 23.5523 3 23 3H7C6.44772 3 6 2.55228 6 2Z" />
<path fill-rule="evenodd" clip-rule="evenodd" d="M6 10C6 9.44771 6.44772 9 7 9H23C23.5523 9 24 9.44771 24 10C24 10.5523 23.5523 11 23 11H7C6.44772 11 6 10.5523 6 10Z" />
<path fill-rule="evenodd" clip-rule="evenodd" d="M6 18C6 17.4477 6.44772 17 7 17H23C23.5523 17 24 17.4477 24 18C24 18.5523 23.5523 19 23 19H7C6.44772 19 6 18.5523 6 18Z" />
<path d="M1.5 3.5C2.32843 3.5 3 2.82843 3 2C3 1.17157 2.32843 0.5 1.5 0.5C0.671573 0.5 0 1.17157 0 2C0 2.82843 0.671573 3.5 1.5 3.5Z" />
<path d="M1.5 11.5C2.32843 11.5 3 10.8284 3 10C3 9.17157 2.32843 8.5 1.5 8.5C0.671573 8.5 0 9.17157 0 10C0 10.8284 0.671573 11.5 1.5 11.5Z" />
<path d="M1.5 19.5C2.32843 19.5 3 18.8284 3 18C3 17.1716 2.32843 16.5 1.5 16.5C0.671573 16.5 0 17.1716 0 18C0 18.8284 0.671573 19.5 1.5 19.5Z" />
</svg>
