<svg width="20" height="18" viewBox="0 0 20 18" fill="none" xmlns="http://www.w3.org/2000/svg">
<path fill-rule="evenodd" clip-rule="evenodd" d="M6.8181 0.022394C6.99179 -0.021028 7.17528 -0.000885654 7.33541 0.0791805L13.0873 2.9551L18.8181 1.52239C19.0422 1.46638 19.2795 1.51672 19.4616 1.65885C19.6436 1.80098 19.75 2.01905 19.75 2.25V15.75C19.75 16.0942 19.5158 16.3941 19.1819 16.4776L13.1819 17.9776C13.0082 18.021 12.8247 18.0009 12.6646 17.9208L6.91274 15.0449L1.1819 16.4776C0.957846 16.5336 0.720478 16.4833 0.538441 16.3412C0.356404 16.199 0.25 15.981 0.25 15.75V2.25C0.25 1.90585 0.484223 1.60586 0.818098 1.52239L6.8181 0.022394ZM7.75 13.7865L12.25 16.0365V4.21353L7.75 1.96353V13.7865ZM6.25 1.71058V13.6644L1.75 14.7894V2.83558L6.25 1.71058ZM13.75 4.33558V16.2894L18.25 15.1644V3.21058L13.75 4.33558Z" fill="#2976D1"/>
</svg>
