<svg width="26" height="30" viewBox="0 0 26 30" fill="none" xmlns="http://www.w3.org/2000/svg">
<path d="M24.2723 13.0242L3.50457 0.347209C3.15863 0.12799 2.75912 0.00801802 2.34965 0.000388085C1.94018 -0.00724185 1.53648 0.097764 1.18262 0.303943C0.823525 0.500958 0.524174 0.791119 0.316061 1.1439C0.107949 1.49667 -0.00123086 1.89902 1.0468e-05 2.30861V27.6914C-0.00123086 28.101 0.107949 28.5033 0.316061 28.8561C0.524174 29.2089 0.823525 29.499 1.18262 29.6961C1.53648 29.9022 1.94018 30.0072 2.34965 29.9996C2.75912 29.992 3.15863 29.872 3.50457 29.6528L24.2723 16.9758C24.6127 16.7705 24.8943 16.4807 25.0897 16.1345C25.2851 15.7883 25.3878 15.3975 25.3878 15C25.3878 14.6025 25.2851 14.2117 25.0897 13.8655C24.8943 13.5193 24.6127 13.2295 24.2723 13.0242Z" fill="#2976D1"/>
</svg>
