<svg width="111" height="20" viewBox="0 0 111 20" fill="none" xmlns="http://www.w3.org/2000/svg">
<path id="Vector" d="M20.9275 5.62565C23.2028 5.62565 24.4136 7.24985 24.4136 9.35721C24.4136 11.4646 23.2028 13.0888 20.9275 13.0888C18.6522 13.0888 17.4414 11.4646 17.4414 9.35721C17.4414 7.24985 18.6522 5.62565 20.9275 5.62565ZM20.9275 3.64679C17.5776 3.64679 15.3225 6.25272 15.3225 9.35721C15.3225 12.4617 17.5776 15.0728 20.9275 15.0728C24.2774 15.0728 26.5325 12.4668 26.5325 9.36234C26.5325 6.25785 24.2774 3.64679 20.9275 3.64679ZM69.6323 5.62565C71.9076 5.62565 73.1184 7.24985 73.1184 9.35721C73.1184 11.4646 71.9076 13.0888 69.6323 13.0888C67.357 13.0888 66.1462 11.4646 66.1462 9.35721C66.1462 7.24985 67.357 5.62565 69.6323 5.62565ZM69.6323 3.64679C66.2824 3.64679 64.0273 6.25272 64.0273 9.35721C64.0273 12.4617 66.2824 15.0728 69.6323 15.0728C72.9822 15.0728 75.2374 12.4668 75.2374 9.36234C75.2374 6.25785 72.9822 3.64679 69.6323 3.64679ZM94.9887 0.321289C94.131 0.321289 93.5761 0.963775 93.5761 1.76046C93.5761 2.55714 94.131 3.19962 94.9887 3.19962C95.8464 3.19962 96.4013 2.55714 96.4013 1.76046C96.4013 0.963775 95.8464 0.321289 94.9887 0.321289ZM29.3578 5.80555H27.4558C27.4356 5.80555 27.4154 5.78499 27.4154 5.76443V3.86781C27.4154 3.84725 27.4306 3.82669 27.4558 3.82669H29.3174C29.3376 3.82669 29.3578 3.84725 29.3578 3.86781V5.80555ZM35.8406 3.82669H31.4767V5.80555H35.5379V7.57367C35.5379 7.68674 35.6287 7.7844 35.7448 7.7844H37.2785C37.3895 7.7844 37.4853 7.69188 37.4853 7.57367V5.49715C37.4803 4.57711 36.7437 3.82669 35.8406 3.82669ZM33.7419 12.914H31.4767V5.80555H29.3578V12.914H27.5315C27.4205 12.914 27.3246 13.0065 27.3246 13.1247V14.6873C27.3246 14.8003 27.4154 14.898 27.5315 14.898H33.7419C33.8529 14.898 33.9487 14.8055 33.9487 14.6873V13.1196C33.9487 13.0065 33.8579 12.914 33.7419 12.914ZM89.4846 3.82669H87.4464C86.5433 3.82669 85.8067 4.57197 85.8067 5.49715V5.74387C85.0651 4.46918 83.8089 3.64679 81.922 3.64679C78.5721 3.64679 76.4936 6.25272 76.4936 9.35721C76.4936 12.4617 78.5721 15.0676 81.922 15.0676C83.6323 15.0676 84.828 14.3892 85.5847 13.3098V17.8534H87.7037V5.80555H89.4846C89.5955 5.80555 89.6914 5.71303 89.6914 5.59481V4.03743C89.6914 3.91921 89.6006 3.82669 89.4846 3.82669ZM82.0986 13.0939C79.8233 13.0939 78.6125 11.4697 78.6125 9.36234C78.6125 7.25499 79.8233 5.63079 82.0986 5.63079C84.3739 5.63079 85.5847 7.25499 85.5847 9.36234C85.5847 11.4697 84.3739 13.0939 82.0986 13.0939ZM83.9552 17.8586H79.1876V16.0905C79.1876 15.9774 79.0968 15.8797 78.9808 15.8797H77.4471C77.3361 15.8797 77.2402 15.9722 77.2402 16.0905V18.167C77.2402 19.087 77.9768 19.8374 78.8799 19.8374H85.5847V17.8586H83.9552ZM98.3134 12.914H96.0482V5.49715C96.0482 4.57711 95.3116 3.82669 94.4085 3.82669H91.8406C91.7296 3.82669 91.6337 3.91921 91.6337 4.03743V5.59995C91.6337 5.71303 91.7246 5.81069 91.8406 5.81069H93.9292V12.914H91.664C91.553 12.914 91.4572 13.0065 91.4572 13.1247V14.6873C91.4572 14.8003 91.548 14.898 91.664 14.898H98.3184C98.4294 14.898 98.5253 14.8055 98.5253 14.6873V13.1196C98.5202 13.0065 98.4294 12.914 98.3134 12.914ZM62.5239 10.9351H60.9902C60.8792 10.9351 60.7833 11.0277 60.7833 11.1459V12.914H55.5112V2.48004H57.6655C57.7765 2.48004 57.8723 2.38752 57.8723 2.26931V0.71192C57.8723 0.598843 57.7815 0.501185 57.6655 0.501185H51.1927C51.0817 0.501185 50.9858 0.593703 50.9858 0.71192V2.27444C50.9858 2.38752 51.0767 2.48518 51.1927 2.48518H53.3469V12.9191H51.1019C50.9909 12.9191 50.895 13.0117 50.895 13.1299V14.6924C50.895 14.8055 50.9858 14.9031 51.1019 14.9031H61.086C61.9891 14.9031 62.7257 14.1579 62.7257 13.2327V11.1562C62.7257 11.0277 62.6348 10.9351 62.5239 10.9351ZM44.4122 3.64679C41.0623 3.64679 38.8071 6.25272 38.8071 9.35721C38.8071 12.4617 41.0623 15.0728 44.4122 15.0728C46.7026 15.0728 48.4785 13.8597 49.3714 12.0968C49.432 11.9785 49.3462 11.8346 49.215 11.8346H47.2424C47.1869 11.8346 47.1365 11.8603 47.1062 11.9014C46.521 12.6416 45.6179 13.0939 44.4172 13.0939C42.4597 13.0939 41.2893 11.8912 41.0017 10.2156H49.8053C49.8961 10.2156 49.9718 10.1487 49.9819 10.0562C50.0071 9.82493 50.0222 9.59364 50.0222 9.35721C50.0172 6.25272 47.7621 3.64679 44.4122 3.64679ZM44.4122 5.62565C46.299 5.62565 47.4493 6.741 47.7923 8.32409H41.032C41.37 6.741 42.5253 5.62565 44.4122 5.62565ZM13.819 10.123H11.8716C11.8061 10.123 11.7455 10.1642 11.7152 10.2207C10.8828 11.8912 9.19777 13.0682 7.26048 13.0785C4.29399 13.0785 2.22552 10.6833 2.26084 7.86664C2.23057 5.06026 4.29399 2.65994 7.26048 2.65994C9.20282 2.67536 10.8879 3.84725 11.7203 5.52799C11.7506 5.58967 11.8111 5.62565 11.8767 5.62565H13.8241C13.9502 5.62565 14.036 5.49715 13.9906 5.37893C12.9715 2.61368 10.2976 0.614262 7.26048 0.675941C3.35057 0.675941 0.121743 3.67249 0.101562 7.87178V7.88206C0.121743 12.0762 3.35057 15.0779 7.26048 15.0779C10.2875 15.1396 12.9664 13.1402 13.9855 10.3749C14.0309 10.2515 13.9452 10.123 13.819 10.123ZM108.111 10.9351C108.035 10.9351 107.97 10.9814 107.944 11.0534C107.48 12.2767 106.446 13.0939 104.832 13.0939C102.556 13.0939 101.345 11.4697 101.345 9.36234C101.345 7.25499 102.556 5.63079 104.832 5.63079C106.446 5.63079 107.475 6.44803 107.944 7.67132C107.97 7.74328 108.035 7.78954 108.111 7.78954H109.922C110.043 7.78954 110.124 7.67132 110.094 7.55825C109.428 5.31212 107.51 3.65193 104.837 3.65193C101.487 3.65193 99.2316 6.25785 99.2316 9.36234C99.2316 12.4668 101.487 15.0728 104.837 15.0728C107.51 15.0728 109.428 13.4126 110.094 11.1664C110.129 11.0534 110.043 10.9351 109.922 10.9351H108.111Z" fill="white"/>
</svg>
