<svg width="27" height="27" viewBox="0 0 27 27" fill="none" xmlns="http://www.w3.org/2000/svg">
<path d="M13.9512 26.9619C21.1309 26.9619 26.9512 21.1416 26.9512 13.9619C26.9512 6.78221 21.1309 0.961914 13.9512 0.961914C6.77147 0.961914 0.951172 6.78221 0.951172 13.9619C0.951172 21.1416 6.77147 26.9619 13.9512 26.9619Z" fill="#EF4400"/>
<path d="M15.8885 12.3911H12.5085V15.7711H15.8885V12.3911Z" fill="white"/>
<path d="M21.8017 16.6757H19.5105C19.4328 16.6757 19.3624 16.7226 19.3263 16.7876C18.3477 18.7159 16.3652 20.0755 14.0848 20.0882C10.5946 20.0882 8.16076 17.3221 8.20228 14.0702C8.16617 10.8293 10.5946 8.05775 14.0848 8.05775C16.3706 8.0758 18.3513 9.42816 19.3317 11.3691C19.3678 11.4396 19.4383 11.4811 19.5159 11.4811H21.8071C21.9552 11.4811 22.0563 11.333 22.0021 11.1958C20.8033 8.00358 17.658 5.69428 14.0848 5.76469C9.48423 5.76469 5.68714 9.22414 5.66367 14.0739V14.0865C5.68714 18.929 9.48603 22.3957 14.0848 22.3957C17.6453 22.4661 20.7978 20.1586 21.9967 16.9646C22.0509 16.8219 21.9498 16.6739 21.8017 16.6739V16.6757Z" fill="white"/>
</svg>
