<svg width="111" height="24" viewBox="0 0 111 24" fill="none" xmlns="http://www.w3.org/2000/svg">
<g clip-path="url(#clip0_9804_40882)">
<path d="M20.9275 9.82584C23.2028 9.82584 24.4136 11.45 24.4136 13.5574C24.4136 15.6648 23.2028 17.289 20.9275 17.289C18.6522 17.289 17.4414 15.6648 17.4414 13.5574C17.4414 11.45 18.6522 9.82584 20.9275 9.82584ZM20.9275 7.84699C17.5776 7.84699 15.3225 10.4529 15.3225 13.5574C15.3225 16.6619 17.5776 19.273 20.9275 19.273C24.2774 19.273 26.5325 16.667 26.5325 13.5625C26.5325 10.458 24.2774 7.84699 20.9275 7.84699ZM69.6323 9.82584C71.9076 9.82584 73.1184 11.45 73.1184 13.5574C73.1184 15.6648 71.9076 17.289 69.6323 17.289C67.357 17.289 66.1462 15.6648 66.1462 13.5574C66.1462 11.45 67.357 9.82584 69.6323 9.82584ZM69.6323 7.84699C66.2824 7.84699 64.0273 10.4529 64.0273 13.5574C64.0273 16.6619 66.2824 19.273 69.6323 19.273C72.9822 19.273 75.2374 16.667 75.2374 13.5625C75.2374 10.458 72.9822 7.84699 69.6323 7.84699ZM94.9887 4.52148C94.131 4.52148 93.5761 5.16397 93.5761 5.96065C93.5761 6.75733 94.131 7.39982 94.9887 7.39982C95.8464 7.39982 96.4013 6.75733 96.4013 5.96065C96.4013 5.16397 95.8464 4.52148 94.9887 4.52148ZM29.3578 10.0057H27.4558C27.4356 10.0057 27.4154 9.98518 27.4154 9.96462V8.068C27.4154 8.04744 27.4306 8.02689 27.4558 8.02689H29.3174C29.3376 8.02689 29.3578 8.04744 29.3578 8.068V10.0057ZM35.8406 8.02689H31.4767V10.0057H35.5379V11.7739C35.5379 11.8869 35.6287 11.9846 35.7448 11.9846H37.2785C37.3895 11.9846 37.4853 11.8921 37.4853 11.7739V9.69735C37.4803 8.77731 36.7437 8.02689 35.8406 8.02689ZM33.7419 17.1142H31.4767V10.0057H29.3578V17.1142H27.5315C27.4205 17.1142 27.3246 17.2067 27.3246 17.3249V18.8875C27.3246 19.0005 27.4154 19.0982 27.5315 19.0982H33.7419C33.8529 19.0982 33.9487 19.0057 33.9487 18.8875V17.3198C33.9487 17.2067 33.8579 17.1142 33.7419 17.1142ZM89.4846 8.02689H87.4464C86.5433 8.02689 85.8067 8.77217 85.8067 9.69735V9.94406C85.0651 8.66937 83.8089 7.84699 81.922 7.84699C78.5721 7.84699 76.4936 10.4529 76.4936 13.5574C76.4936 16.6619 78.5721 19.2678 81.922 19.2678C83.6323 19.2678 84.828 18.5893 85.5847 17.51V22.0536H87.7037V10.0057H89.4846C89.5955 10.0057 89.6914 9.91322 89.6914 9.79501V8.23762C89.6914 8.1194 89.6006 8.02689 89.4846 8.02689ZM82.0986 17.2941C79.8233 17.2941 78.6125 15.6699 78.6125 13.5625C78.6125 11.4552 79.8233 9.83098 82.0986 9.83098C84.3739 9.83098 85.5847 11.4552 85.5847 13.5625C85.5847 15.6699 84.3739 17.2941 82.0986 17.2941ZM83.9552 22.0588H79.1876V20.2906C79.1876 20.1776 79.0968 20.0799 78.9808 20.0799H77.4471C77.3361 20.0799 77.2402 20.1724 77.2402 20.2906V22.3672C77.2402 23.2872 77.9768 24.0376 78.8799 24.0376H85.5847V22.0588H83.9552ZM98.3134 17.1142H96.0482V9.69735C96.0482 8.77731 95.3116 8.02689 94.4085 8.02689H91.8406C91.7296 8.02689 91.6337 8.1194 91.6337 8.23762V9.80015C91.6337 9.91322 91.7246 10.0109 91.8406 10.0109H93.9292V17.1142H91.664C91.553 17.1142 91.4572 17.2067 91.4572 17.3249V18.8875C91.4572 19.0005 91.548 19.0982 91.664 19.0982H98.3184C98.4294 19.0982 98.5253 19.0057 98.5253 18.8875V17.3198C98.5202 17.2067 98.4294 17.1142 98.3134 17.1142ZM62.5239 15.1353H60.9902C60.8792 15.1353 60.7833 15.2279 60.7833 15.3461V17.1142H55.5112V6.68024H57.6655C57.7765 6.68024 57.8723 6.58772 57.8723 6.4695V4.91212C57.8723 4.79904 57.7815 4.70138 57.6655 4.70138H51.1927C51.0817 4.70138 50.9858 4.7939 50.9858 4.91212V6.47464C50.9858 6.58772 51.0767 6.68538 51.1927 6.68538H53.3469V17.1193H51.1019C50.9909 17.1193 50.895 17.2119 50.895 17.3301V18.8926C50.895 19.0057 50.9858 19.1033 51.1019 19.1033H61.086C61.9891 19.1033 62.7257 18.3581 62.7257 17.4329V15.3564C62.7257 15.2279 62.6348 15.1353 62.5239 15.1353ZM44.4122 7.84699C41.0623 7.84699 38.8071 10.4529 38.8071 13.5574C38.8071 16.6619 41.0623 19.273 44.4122 19.273C46.7026 19.273 48.4785 18.0599 49.3714 16.297C49.432 16.1787 49.3462 16.0348 49.215 16.0348H47.2424C47.1869 16.0348 47.1365 16.0605 47.1062 16.1016C46.521 16.8418 45.6179 17.2941 44.4172 17.2941C42.4597 17.2941 41.2893 16.0914 41.0017 14.4158H49.8053C49.8961 14.4158 49.9718 14.3489 49.9819 14.2564C50.0071 14.0251 50.0222 13.7938 50.0222 13.5574C50.0172 10.4529 47.7621 7.84699 44.4122 7.84699ZM44.4122 9.82584C46.299 9.82584 47.4493 10.9412 47.7923 12.5243H41.032C41.37 10.9412 42.5253 9.82584 44.4122 9.82584ZM13.819 14.3232H11.8716C11.8061 14.3232 11.7455 14.3644 11.7152 14.4209C10.8828 16.0914 9.19777 17.2684 7.26048 17.2787C4.29399 17.2787 2.22552 14.8835 2.26084 12.0668C2.23057 9.26046 4.29399 6.86013 7.26048 6.86013C9.20282 6.87555 10.8879 8.04744 11.7203 9.72819C11.7506 9.78987 11.8111 9.82584 11.8767 9.82584H13.8241C13.9502 9.82584 14.036 9.69735 13.9906 9.57913C12.9715 6.81387 10.2976 4.81446 7.26048 4.87614C3.35057 4.87614 0.121743 7.87269 0.101562 12.072V12.0823C0.121743 16.2764 3.35057 19.2781 7.26048 19.2781C10.2875 19.3398 12.9664 17.3404 13.9855 14.5751C14.0309 14.4517 13.9452 14.3232 13.819 14.3232ZM108.111 15.1353C108.035 15.1353 107.97 15.1816 107.944 15.2536C107.48 16.4769 106.446 17.2941 104.832 17.2941C102.556 17.2941 101.345 15.6699 101.345 13.5625C101.345 11.4552 102.556 9.83098 104.832 9.83098C106.446 9.83098 107.475 10.6482 107.944 11.8715C107.97 11.9435 108.035 11.9897 108.111 11.9897H109.922C110.043 11.9897 110.124 11.8715 110.094 11.7584C109.428 9.51231 107.51 7.85213 104.837 7.85213C101.487 7.85213 99.2316 10.458 99.2316 13.5625C99.2316 16.667 101.487 19.273 104.837 19.273C107.51 19.273 109.428 17.6128 110.094 15.3666C110.129 15.2536 110.043 15.1353 109.922 15.1353H108.111Z" fill="#2F3132"/>
</g>
<defs>
<clipPath id="clip0_9804_40882">
<rect width="110" height="23.52" fill="white" transform="translate(0.101562 0.121094)"/>
</clipPath>
</defs>
</svg>
